<?xml version="1.0" encoding="UTF-8"?>
<svg xmlns="http://www.w3.org/2000/svg" xmlns:xlink="http://www.w3.org/1999/xlink" width="500px" height="500px" viewBox="0 0 500 500" version="1.1">
<defs>
<filter id="alpha" filterUnits="objectBoundingBox" x="0%" y="0%" width="100%" height="100%">
  <feColorMatrix type="matrix" in="SourceGraphic" values="0 0 0 0 1 0 0 0 0 1 0 0 0 0 1 0 0 0 1 0"/>
</filter>
<mask id="mask0">
  <g filter="url(#alpha)">
<rect x="0" y="0" width="500" height="500" style="fill:rgb(0%,0%,0%);fill-opacity:0.741176;stroke:none;"/>
  </g>
</mask>
<clipPath id="clip1">
  <rect x="0" y="0" width="500" height="500"/>
</clipPath>
<g id="surface5" clip-path="url(#clip1)">
<path style=" stroke:none;fill-rule:nonzero;fill:rgb(24.705882%,23.921569%,33.72549%);fill-opacity:1;" d="M 127.578125 226.820312 C 127.578125 237.625 119.0625 246.382812 108.554688 246.382812 C 98.046875 246.382812 89.527344 237.625 89.527344 226.820312 C 89.527344 216.015625 98.046875 207.257812 108.554688 207.257812 C 119.0625 207.257812 127.578125 216.015625 127.578125 226.820312 Z M 127.578125 226.820312 "/>
</g>
<mask id="mask1">
  <g filter="url(#alpha)">
<rect x="0" y="0" width="500" height="500" style="fill:rgb(0%,0%,0%);fill-opacity:0.741176;stroke:none;"/>
  </g>
</mask>
<clipPath id="clip2">
  <rect x="0" y="0" width="500" height="500"/>
</clipPath>
<g id="surface8" clip-path="url(#clip2)">
<path style=" stroke:none;fill-rule:nonzero;fill:rgb(42.352941%,38.823529%,100%);fill-opacity:1;" d="M 146.605469 226.820312 C 146.605469 237.625 138.085938 246.382812 127.578125 246.382812 C 117.070312 246.382812 108.554688 237.625 108.554688 226.820312 C 108.554688 216.015625 117.070312 207.257812 127.578125 207.257812 C 138.085938 207.257812 146.605469 216.015625 146.605469 226.820312 Z M 146.605469 226.820312 "/>
</g>
<mask id="mask2">
  <g filter="url(#alpha)">
<rect x="0" y="0" width="500" height="500" style="fill:rgb(0%,0%,0%);fill-opacity:0.741176;stroke:none;"/>
  </g>
</mask>
<clipPath id="clip3">
  <rect x="0" y="0" width="500" height="500"/>
</clipPath>
<g id="surface11" clip-path="url(#clip3)">
<path style=" stroke:none;fill-rule:nonzero;fill:rgb(100%,39.607843%,51.764706%);fill-opacity:1;" d="M 137.253906 211.230469 C 137.253906 222.035156 128.734375 230.792969 118.226562 230.792969 C 107.71875 230.792969 99.199219 222.035156 99.199219 211.230469 C 99.199219 200.425781 107.71875 191.667969 118.226562 191.667969 C 128.734375 191.667969 137.253906 200.425781 137.253906 211.230469 Z M 137.253906 211.230469 "/>
</g>
<mask id="mask3">
  <g filter="url(#alpha)">
<rect x="0" y="0" width="500" height="500" style="fill:rgb(0%,0%,0%);fill-opacity:0.211765;stroke:none;"/>
  </g>
</mask>
<clipPath id="clip4">
  <rect x="0" y="0" width="500" height="500"/>
</clipPath>
<g id="surface14" clip-path="url(#clip4)">
<path style=" stroke:none;fill-rule:nonzero;fill:rgb(0%,0%,0%);fill-opacity:1;" d="M 437.921875 108.859375 L 437.605469 108.859375 C 438.585938 108.859375 439.558594 109.097656 440.4375 109.546875 L 439 109.546875 C 435.773438 109.550781 433.160156 112.238281 433.15625 115.554688 L 433.15625 131.46875 C 433.160156 134.785156 435.773438 137.472656 439 137.476562 L 439.914062 137.476562 C 439.179688 137.773438 438.394531 137.925781 437.605469 137.925781 L 437.921875 137.925781 C 441.453125 137.921875 444.3125 134.980469 444.316406 131.347656 L 444.316406 115.4375 C 444.3125 111.804688 441.453125 108.863281 437.921875 108.859375 Z M 437.921875 108.859375 "/>
</g>
<mask id="mask4">
  <g filter="url(#alpha)">
<rect x="0" y="0" width="500" height="500" style="fill:rgb(0%,0%,0%);fill-opacity:0.211765;stroke:none;"/>
  </g>
</mask>
<clipPath id="clip5">
  <rect x="0" y="0" width="500" height="500"/>
</clipPath>
<g id="surface17" clip-path="url(#clip5)">
<path style=" stroke:none;fill-rule:nonzero;fill:rgb(0%,0%,0%);fill-opacity:1;" d="M 396.898438 108.859375 L 396.582031 108.859375 C 397.566406 108.859375 398.535156 109.097656 399.414062 109.546875 L 397.976562 109.546875 C 394.753906 109.550781 392.140625 112.238281 392.136719 115.554688 L 392.136719 131.46875 C 392.140625 134.785156 394.753906 137.472656 397.976562 137.476562 L 398.894531 137.476562 C 398.15625 137.773438 397.375 137.925781 396.582031 137.925781 L 396.898438 137.925781 C 400.429688 137.921875 403.292969 134.980469 403.296875 131.347656 L 403.296875 115.4375 C 403.292969 111.804688 400.429688 108.863281 396.898438 108.859375 Z M 396.898438 108.859375 "/>
</g>
</defs>
<g id="surface1">
<path style=" stroke:none;fill-rule:nonzero;fill:rgb(94.901961%,94.901961%,94.901961%);fill-opacity:1;" d="M 470.679688 137.976562 C 465.996094 129.289062 460.800781 120.902344 455.121094 112.867188 C 451.140625 107.230469 446.933594 101.785156 442.503906 96.523438 L 442.492188 96.523438 C 434.476562 87 425.753906 78.125 416.410156 69.980469 C 414.5 68.3125 412.558594 66.675781 410.597656 65.074219 C 392.867188 50.570312 373.203125 38.761719 352.210938 30 L 352.398438 61.539062 L 354.40625 421.066406 L 180.300781 421.066406 L 170.507812 62.214844 L 171.238281 31.179688 C 85.878906 68.089844 25.945312 154.875 25.945312 256.054688 C 25.929688 276.9375 28.519531 297.738281 33.65625 317.945312 C 35.824219 326.484375 38.449219 334.898438 41.519531 343.140625 C 42.628906 346.132812 43.800781 349.097656 45.03125 352.039062 C 45.621094 353.46875 46.226562 354.886719 46.855469 356.300781 C 47.65625 358.148438 48.496094 359.988281 49.355469 361.804688 C 50.019531 363.238281 50.703125 364.65625 51.40625 366.070312 C 52.308594 367.921875 53.242188 369.757812 54.203125 371.582031 C 54.945312 373.011719 55.710938 374.429688 56.488281 375.84375 C 69.007812 398.613281 84.996094 419.171875 103.84375 436.742188 C 109.21875 441.75 114.808594 446.5 120.613281 450.988281 C 205.03125 516.207031 321.207031 516.207031 405.625 450.988281 C 408.785156 448.550781 411.878906 446.03125 414.910156 443.425781 C 416.921875 441.707031 418.898438 439.953125 420.847656 438.167969 C 421.363281 437.691406 421.875 437.21875 422.386719 436.742188 C 439.765625 420.546875 454.71875 401.800781 466.765625 381.109375 C 471.191406 373.523438 475.203125 365.691406 478.785156 357.652344 C 479.734375 355.53125 480.652344 353.390625 481.539062 351.234375 C 485.632812 341.339844 489.074219 331.171875 491.839844 320.804688 C 492.265625 319.203125 492.679688 317.597656 493.078125 315.984375 L 493.078125 315.976562 C 493.144531 315.699219 493.214844 315.414062 493.28125 315.132812 C 493.691406 313.4375 494.085938 311.726562 494.460938 310.015625 L 494.460938 310.011719 C 495.683594 304.5 496.710938 298.921875 497.550781 293.277344 C 497.65625 292.554688 497.761719 291.828125 497.859375 291.105469 C 497.898438 290.84375 497.9375 290.582031 497.964844 290.320312 L 497.964844 290.3125 C 498.566406 285.953125 499.050781 281.5625 499.421875 277.136719 C 500 270.1875 500.289062 263.160156 500.292969 256.054688 C 500.355469 214.746094 490.164062 174.101562 470.679688 137.976562 Z M 470.679688 137.976562 "/>
<path style=" stroke:none;fill-rule:nonzero;fill:rgb(90.196078%,90.196078%,90.196078%);fill-opacity:1;" d="M 447.390625 403.25 C 461.425781 383.75 466.824219 356.28125 455.90625 334.773438 C 445.664062 358.964844 427.429688 378.652344 404.429688 390.351562 C 395.542969 394.832031 385.207031 398.863281 381.09375 408.117188 C 378.535156 413.875 379.019531 420.675781 381.078125 426.644531 C 383.136719 432.609375 386.636719 437.921875 390.097656 443.15625 L 390.28125 444.726562 C 412.078125 435.433594 433.351562 422.753906 447.390625 403.25 Z M 447.390625 403.25 "/>
<path style=" stroke:none;fill-rule:nonzero;fill:rgb(100%,100%,100%);fill-opacity:1;" d="M 455.441406 334.945312 C 454.8125 355.015625 448.046875 374.375 436.109375 390.269531 C 433.597656 393.738281 430.570312 396.777344 427.136719 399.277344 C 423.71875 401.597656 419.757812 402.9375 415.664062 403.15625 C 411.851562 403.4375 407.917969 403.269531 404.238281 404.5 C 400.445312 405.828125 397.386719 408.761719 395.832031 412.554688 C 393.792969 417.179688 393.492188 422.28125 393.367188 427.277344 C 393.230469 432.828125 393.171875 438.59375 390.625 443.640625 C 390.316406 444.25 391.257812 444.707031 391.566406 444.097656 C 395.996094 435.320312 393.117188 425.054688 395.757812 415.828125 C 396.988281 411.523438 399.492188 407.570312 403.671875 405.847656 C 407.328125 404.339844 411.382812 404.507812 415.246094 404.257812 C 419.242188 404.105469 423.140625 402.949219 426.605469 400.890625 C 430.148438 398.582031 433.285156 395.664062 435.878906 392.273438 C 441.835938 384.726562 446.601562 376.269531 450 367.203125 C 453.9375 356.878906 456.128906 345.9375 456.476562 334.851562 C 456.496094 334.167969 455.460938 334.261719 455.441406 334.945312 Z M 455.441406 334.945312 "/>
<path style=" stroke:none;fill-rule:nonzero;fill:rgb(100%,100%,100%);fill-opacity:1;" d="M 440.246094 385.382812 C 446.164062 388.886719 453.679688 387.46875 458.003906 382.03125 C 458.425781 381.496094 457.636719 380.796875 457.214844 381.332031 C 453.199219 386.40625 446.183594 387.714844 440.691406 384.417969 C 440.113281 384.070312 439.671875 385.039062 440.246094 385.382812 Z M 440.246094 385.382812 "/>
<path style=" stroke:none;fill-rule:nonzero;fill:rgb(100%,100%,100%);fill-opacity:1;" d="M 417.613281 403.273438 C 415.800781 396.578125 416.507812 389.425781 419.59375 383.242188 C 419.902344 382.628906 418.960938 382.175781 418.65625 382.785156 C 415.453125 389.226562 414.734375 396.671875 416.636719 403.636719 C 416.816406 404.296875 417.796875 403.933594 417.613281 403.273438 Z M 417.613281 403.273438 "/>
<path style=" stroke:none;fill-rule:nonzero;fill:rgb(100%,100%,100%);fill-opacity:1;" d="M 452.558594 356.925781 C 450.035156 356.074219 448.101562 353.976562 447.40625 351.34375 C 447.230469 350.675781 446.253906 351.039062 446.425781 351.703125 C 447.207031 354.609375 449.335938 356.925781 452.113281 357.894531 C 452.375 358.011719 452.679688 357.898438 452.808594 357.640625 C 452.929688 357.371094 452.816406 357.054688 452.558594 356.925781 Z M 452.558594 356.925781 "/>
<path style=" stroke:none;fill-rule:nonzero;fill:rgb(90.196078%,90.196078%,90.196078%);fill-opacity:1;" d="M 377.761719 317.65625 C 377.859375 318.074219 377.957031 318.492188 378.046875 318.917969 C 379.320312 324.558594 380.148438 330.292969 380.515625 336.066406 C 380.554688 336.511719 380.582031 336.964844 380.605469 337.410156 C 381.355469 351.335938 379.582031 365.28125 375.378906 378.539062 C 373.703125 383.8125 371.636719 388.945312 369.203125 393.898438 C 365.839844 400.738281 361.664062 407.878906 360.71875 415.242188 C 360.613281 416.007812 360.554688 416.78125 360.539062 417.558594 L 388.402344 444.832031 C 388.496094 444.863281 388.585938 444.898438 388.679688 444.925781 L 389.742188 446.070312 C 389.886719 445.824219 390.03125 445.5625 390.171875 445.316406 C 390.257812 445.175781 390.332031 445.027344 390.417969 444.882812 C 390.46875 444.785156 390.523438 444.6875 390.578125 444.605469 C 390.597656 444.574219 390.613281 444.539062 390.625 444.515625 C 390.679688 444.429688 390.71875 444.347656 390.769531 444.269531 C 391.570312 442.824219 392.367188 441.371094 393.152344 439.910156 C 393.160156 439.90625 393.160156 439.90625 393.160156 439.894531 C 399.128906 428.75 404.242188 416.996094 407.460938 404.820312 C 407.554688 404.453125 407.660156 404.078125 407.742188 403.699219 C 409.164062 398.203125 410.144531 392.597656 410.675781 386.933594 C 410.957031 383.832031 411.085938 380.71875 411.0625 377.605469 C 410.984375 369.558594 409.675781 361.574219 407.183594 353.945312 C 402.210938 338.738281 392.566406 325.332031 378.816406 318.191406 C 378.464844 318.007812 378.121094 317.832031 377.761719 317.65625 Z M 377.761719 317.65625 "/>
<path style=" stroke:none;fill-rule:nonzero;fill:rgb(100%,100%,100%);fill-opacity:1;" d="M 377.488281 318.082031 C 388.738281 334.496094 394.675781 354.140625 394.449219 374.21875 C 394.476562 378.542969 393.839844 382.84375 392.5625 386.964844 C 391.191406 390.9375 388.8125 394.460938 385.671875 397.167969 C 382.792969 399.75 379.554688 402.050781 377.335938 405.3125 C 375.089844 408.71875 374.363281 412.953125 375.339844 416.949219 C 376.421875 421.902344 379.167969 426.160156 381.996094 430.226562 C 385.136719 434.746094 388.464844 439.386719 389.386719 444.988281 C 389.5 445.667969 390.515625 445.449219 390.40625 444.773438 C 388.804688 435.023438 380.496094 428.605469 377.199219 419.605469 C 375.660156 415.40625 375.347656 410.703125 377.671875 406.738281 C 379.710938 403.269531 383.046875 400.894531 385.984375 398.304688 C 389.085938 395.707031 391.523438 392.371094 393.082031 388.585938 C 394.558594 384.546875 395.355469 380.277344 395.4375 375.964844 C 395.777344 366.253906 394.628906 356.546875 392.035156 347.203125 C 389.132812 336.523438 384.472656 326.429688 378.261719 317.367188 C 377.875 316.804688 377.105469 317.523438 377.488281 318.082031 Z M 377.488281 318.082031 "/>
<path style=" stroke:none;fill-rule:nonzero;fill:rgb(100%,100%,100%);fill-opacity:1;" d="M 394.890625 367.757812 C 401.671875 366.894531 406.839844 361.109375 407.105469 354.089844 C 407.132812 353.402344 406.09375 353.332031 406.070312 354.023438 C 405.832031 360.558594 401 365.945312 394.679688 366.710938 C 394.015625 366.792969 394.230469 367.839844 394.890625 367.757812 Z M 394.890625 367.757812 "/>
<path style=" stroke:none;fill-rule:nonzero;fill:rgb(100%,100%,100%);fill-opacity:1;" d="M 387.300781 396.054688 C 381.929688 391.832031 378.304688 385.679688 377.152344 378.832031 C 377.035156 378.15625 376.019531 378.371094 376.132812 379.050781 C 377.347656 386.175781 381.132812 392.566406 386.730469 396.945312 C 387.261719 397.363281 387.832031 396.46875 387.300781 396.054688 Z M 387.300781 396.054688 "/>
<path style=" stroke:none;fill-rule:nonzero;fill:rgb(100%,100%,100%);fill-opacity:1;" d="M 388.058594 337.414062 C 385.546875 338.296875 382.773438 337.820312 380.675781 336.148438 C 380.144531 335.722656 379.578125 336.621094 380.101562 337.042969 C 382.429688 338.878906 385.488281 339.410156 388.269531 338.464844 C 388.546875 338.394531 388.722656 338.117188 388.675781 337.832031 C 388.617188 337.542969 388.339844 337.359375 388.058594 337.414062 Z M 388.058594 337.414062 "/>
<path style=" stroke:none;fill-rule:nonzero;fill:rgb(90.196078%,90.196078%,90.196078%);fill-opacity:1;" d="M 11.070312 294.027344 C -1.378906 273.417969 -4.585938 245.585938 7.996094 225.0625 C 16.292969 250.03125 32.910156 271.175781 54.910156 284.761719 C 63.410156 289.96875 73.394531 294.847656 76.765625 304.417969 C 78.859375 310.371094 77.835938 317.105469 75.3125 322.882812 C 72.792969 328.65625 68.882812 333.65625 65.019531 338.585938 L 64.714844 340.136719 C 43.722656 329.050781 23.523438 314.636719 11.070312 294.027344 Z M 11.070312 294.027344 "/>
<path style=" stroke:none;fill-rule:nonzero;fill:rgb(100%,100%,100%);fill-opacity:1;" d="M 8.445312 225.273438 C 7.488281 245.332031 12.699219 265.191406 23.34375 282.027344 C 25.570312 285.695312 28.347656 288.980469 31.570312 291.757812 C 34.792969 294.359375 38.636719 296.023438 42.699219 296.582031 C 46.480469 297.179688 50.410156 297.34375 53.980469 298.875 C 57.65625 300.519531 60.472656 303.695312 61.726562 307.609375 C 63.390625 312.386719 63.285156 317.496094 63.015625 322.488281 C 62.714844 328.03125 62.316406 333.785156 64.457031 339.023438 C 64.714844 339.660156 63.742188 340.035156 63.484375 339.402344 C 59.761719 330.285156 63.441406 320.292969 61.539062 310.875 C 60.652344 306.480469 58.46875 302.335938 54.4375 300.265625 C 50.914062 298.457031 46.859375 298.285156 43.03125 297.714844 C 39.058594 297.230469 35.261719 295.753906 31.976562 293.410156 C 28.625 290.8125 25.730469 287.644531 23.414062 284.046875 C 18.074219 276.027344 13.992188 267.199219 11.320312 257.878906 C 8.210938 247.257812 6.890625 236.171875 7.421875 225.09375 C 7.453125 224.410156 8.480469 224.59375 8.445312 225.273438 Z M 8.445312 225.273438 "/>
<path style=" stroke:none;fill-rule:nonzero;fill:rgb(100%,100%,100%);fill-opacity:1;" d="M 19.605469 276.8125 C 13.429688 279.8125 6.046875 277.773438 2.171875 271.992188 C 1.792969 271.421875 2.632812 270.792969 3.011719 271.359375 C 6.613281 276.753906 13.5 278.644531 19.238281 275.8125 C 19.839844 275.515625 20.203125 276.519531 19.605469 276.8125 Z M 19.605469 276.8125 "/>
<path style=" stroke:none;fill-rule:nonzero;fill:rgb(100%,100%,100%);fill-opacity:1;" d="M 40.746094 296.539062 C 43.082031 290.015625 42.945312 282.828125 40.355469 276.40625 C 40.097656 275.769531 41.070312 275.394531 41.328125 276.03125 C 44.011719 282.71875 44.140625 290.199219 41.695312 296.980469 C 41.460938 297.625 40.515625 297.179688 40.746094 296.539062 Z M 40.746094 296.539062 "/>
<path style=" stroke:none;fill-rule:nonzero;fill:rgb(100%,100%,100%);fill-opacity:1;" d="M 9.582031 247.421875 C 12.160156 246.785156 14.257812 244.855469 15.160156 242.289062 C 15.386719 241.640625 16.332031 242.085938 16.105469 242.730469 C 15.097656 245.558594 12.792969 247.691406 9.945312 248.425781 C 9.679688 248.519531 9.386719 248.382812 9.277344 248.113281 C 9.175781 247.835938 9.3125 247.527344 9.582031 247.421875 Z M 9.582031 247.421875 "/>
<path style=" stroke:none;fill-rule:nonzero;fill:rgb(90.196078%,90.196078%,90.196078%);fill-opacity:1;" d="M 87.234375 214.53125 C 87.105469 214.941406 86.976562 215.351562 86.851562 215.769531 C 85.136719 221.28125 83.859375 226.925781 83.035156 232.652344 C 82.960938 233.09375 82.898438 233.542969 82.839844 233.984375 C 80.992188 247.800781 81.65625 261.847656 84.796875 275.410156 C 86.054688 280.808594 87.707031 286.097656 89.742188 291.238281 C 92.550781 298.335938 96.148438 305.800781 96.507812 313.21875 C 96.550781 313.992188 96.550781 314.769531 96.503906 315.542969 L 66.574219 340.398438 C 66.480469 340.421875 66.390625 340.449219 66.292969 340.46875 L 65.140625 341.519531 C 65.019531 341.261719 64.898438 340.992188 64.773438 340.734375 C 64.703125 340.585938 64.636719 340.429688 64.566406 340.28125 C 64.519531 340.179688 64.472656 340.078125 64.425781 339.992188 C 64.410156 339.957031 64.394531 339.921875 64.386719 339.894531 C 64.339844 339.808594 64.304688 339.71875 64.261719 339.640625 C 63.578125 338.132812 62.898438 336.617188 62.230469 335.097656 C 62.222656 335.089844 62.222656 335.089844 62.226562 335.078125 C 57.160156 323.472656 52.988281 311.332031 50.746094 298.925781 C 50.679688 298.550781 50.605469 298.171875 50.550781 297.789062 C 49.570312 292.191406 49.035156 286.519531 48.953125 280.832031 C 48.917969 277.71875 49.035156 274.601562 49.304688 271.5 C 50.019531 263.484375 51.957031 255.636719 55.042969 248.242188 C 61.199219 233.5 71.871094 220.945312 86.140625 214.976562 C 86.503906 214.824219 86.863281 214.679688 87.234375 214.53125 Z M 87.234375 214.53125 "/>
<path style=" stroke:none;fill-rule:nonzero;fill:rgb(100%,100%,100%);fill-opacity:1;" d="M 87.472656 214.980469 C 74.960938 230.398438 67.496094 249.480469 66.132812 269.515625 C 65.765625 273.824219 66.058594 278.164062 67.003906 282.375 C 68.054688 286.449219 70.148438 290.15625 73.066406 293.117188 C 75.730469 295.933594 78.777344 298.5 80.730469 301.933594 C 82.703125 305.519531 83.089844 309.800781 81.800781 313.699219 C 80.332031 318.542969 77.257812 322.558594 74.117188 326.378906 C 70.628906 330.617188 66.945312 334.964844 65.582031 340.472656 C 65.417969 341.140625 64.421875 340.839844 64.585938 340.171875 C 66.953125 330.585938 75.742188 324.886719 79.738281 316.191406 C 81.601562 312.132812 82.289062 307.472656 80.28125 303.324219 C 78.527344 299.699219 75.390625 297.054688 72.667969 294.226562 C 69.78125 291.378906 67.613281 287.851562 66.359375 283.949219 C 65.207031 279.796875 64.75 275.476562 65.007812 271.167969 C 65.4375 261.464844 67.351562 251.886719 70.675781 242.789062 C 74.410156 232.386719 79.851562 222.71875 86.761719 214.203125 C 87.1875 213.675781 87.898438 214.457031 87.472656 214.980469 Z M 87.472656 214.980469 "/>
<path style=" stroke:none;fill-rule:nonzero;fill:rgb(100%,100%,100%);fill-opacity:1;" d="M 66.203125 263.039062 C 59.511719 261.609375 54.816406 255.410156 55.105469 248.394531 C 55.121094 248.105469 55.355469 247.882812 55.636719 247.886719 C 55.914062 247.890625 56.140625 248.125 56.148438 248.414062 C 55.863281 254.949219 60.257812 260.71875 66.496094 262.011719 C 67.148438 262.148438 66.855469 263.175781 66.203125 263.039062 Z M 66.203125 263.039062 "/>
<path style=" stroke:none;fill-rule:nonzero;fill:rgb(100%,100%,100%);fill-opacity:1;" d="M 71.53125 291.875 C 77.21875 288.113281 81.316406 282.289062 83.007812 275.558594 C 83.175781 274.890625 84.171875 275.191406 84.007812 275.859375 C 82.230469 282.859375 77.953125 288.910156 72.03125 292.8125 C 71.464844 293.183594 70.96875 292.242188 71.53125 291.875 Z M 71.53125 291.875 "/>
<path style=" stroke:none;fill-rule:nonzero;fill:rgb(100%,100%,100%);fill-opacity:1;" d="M 75.410156 233.367188 C 77.84375 234.453125 80.648438 234.210938 82.871094 232.71875 C 83.429688 232.339844 83.925781 233.28125 83.371094 233.65625 C 80.90625 235.292969 77.816406 235.570312 75.117188 234.390625 C 74.847656 234.300781 74.691406 234.011719 74.761719 233.730469 C 74.84375 233.445312 75.132812 233.285156 75.410156 233.367188 Z M 75.410156 233.367188 "/>
<path style=" stroke:none;fill-rule:nonzero;fill:rgb(100%,39.607843%,51.764706%);fill-opacity:1;" d="M 275.140625 49.765625 C 275.140625 68.476562 260.386719 83.644531 242.1875 83.644531 C 223.988281 83.644531 209.238281 68.476562 209.238281 49.765625 C 209.238281 31.054688 223.988281 15.886719 242.1875 15.886719 C 260.386719 15.886719 275.140625 31.054688 275.140625 49.765625 Z M 275.140625 49.765625 "/>
<path style=" stroke:none;fill-rule:nonzero;fill:rgb(90.196078%,90.196078%,90.196078%);fill-opacity:1;" d="M 343.078125 47.996094 C 340.109375 44.773438 336.972656 41.714844 333.6875 38.832031 C 327.269531 33.234375 320.160156 28.476562 312.238281 25.480469 C 309.257812 24.347656 306.175781 23.511719 303.039062 22.988281 C 302.660156 22.925781 302.289062 22.863281 301.914062 22.8125 C 301.882812 22.808594 301.855469 22.808594 301.828125 22.8125 C 301.769531 22.796875 301.710938 22.785156 301.652344 22.777344 C 300.882812 22.675781 300.109375 22.59375 299.335938 22.539062 C 295.15625 22.253906 290.957031 22.640625 286.894531 23.691406 C 284.539062 24.300781 282.238281 25.125 280.019531 26.152344 C 277.800781 27.269531 275.648438 28.523438 273.574219 29.90625 C 272.460938 30.601562 271.3125 31.242188 270.136719 31.816406 C 266.703125 33.488281 263.066406 34.6875 259.328125 35.375 C 256.800781 35.839844 254.242188 36.097656 251.675781 36.148438 C 249.449219 36.195312 247.347656 36.273438 245.234375 37.101562 C 240.664062 38.867188 237.175781 42.75 235.828125 47.574219 C 235.722656 48.007812 235.902344 48.464844 236.273438 48.699219 C 236.84375 49.121094 237.398438 49.597656 238.003906 49.976562 C 238.535156 50.226562 239.105469 50.386719 239.6875 50.449219 C 240.640625 50.652344 241.597656 50.851562 242.554688 51.046875 C 246.074219 51.765625 249.609375 52.402344 253.15625 52.957031 C 260.296875 54.066406 267.476562 54.851562 274.699219 55.304688 C 274.742188 55.3125 274.789062 55.316406 274.832031 55.316406 C 282.992188 55.820312 291.167969 55.902344 299.335938 55.5625 C 300.570312 55.507812 301.800781 55.445312 303.039062 55.371094 C 308.1875 55.074219 313.324219 54.609375 318.449219 53.96875 C 323.1875 53.378906 327.910156 52.640625 332.613281 51.765625 C 335.972656 51.136719 339.316406 50.4375 342.652344 49.667969 C 342.980469 49.566406 343.234375 49.296875 343.320312 48.957031 C 343.410156 48.613281 343.316406 48.25 343.078125 47.996094 Z M 343.078125 47.996094 "/>
<path style=" stroke:none;fill-rule:nonzero;fill:rgb(90.196078%,90.196078%,90.196078%);fill-opacity:1;" d="M 274.589844 93.171875 C 269.816406 87.925781 264.5625 83.167969 258.894531 78.96875 C 257.015625 77.613281 255.082031 76.335938 253.089844 75.167969 C 250.652344 73.71875 248.117188 72.445312 245.507812 71.355469 C 244.925781 71.109375 244.339844 70.875 243.75 70.652344 C 240.414062 69.382812 236.949219 68.488281 233.421875 67.984375 C 233.394531 67.980469 233.367188 67.984375 233.339844 67.980469 C 233.285156 67.96875 233.222656 67.957031 233.167969 67.945312 C 231.457031 67.71875 229.738281 67.609375 228.011719 67.621094 C 226.777344 67.621094 225.535156 67.6875 224.304688 67.8125 C 222.316406 68.015625 220.34375 68.367188 218.40625 68.863281 C 217.445312 69.109375 216.492188 69.394531 215.558594 69.71875 C 214.191406 70.179688 212.847656 70.714844 211.539062 71.324219 C 211.515625 71.335938 211.5 71.34375 211.476562 71.355469 C 209.277344 72.460938 207.144531 73.707031 205.089844 75.082031 C 205.046875 75.109375 204.996094 75.136719 204.953125 75.167969 C 202.621094 76.601562 200.15625 77.789062 197.589844 78.710938 C 195.390625 79.503906 193.132812 80.117188 190.839844 80.546875 C 188.3125 81.015625 185.753906 81.269531 183.1875 81.316406 C 180.960938 81.363281 178.859375 81.441406 176.753906 82.273438 C 172.179688 84.039062 168.691406 87.921875 167.339844 92.75 C 167.234375 93.183594 167.414062 93.636719 167.785156 93.871094 C 168.355469 94.292969 168.914062 94.765625 169.511719 95.144531 C 170.046875 95.394531 170.613281 95.554688 171.199219 95.617188 C 172.152344 95.820312 173.105469 96.027344 174.0625 96.21875 C 177.585938 96.9375 181.121094 97.574219 184.675781 98.125 C 189.546875 98.882812 194.441406 99.488281 199.351562 99.941406 C 201.683594 100.164062 204.011719 100.347656 206.34375 100.488281 C 212.324219 100.859375 218.3125 101.003906 224.304688 100.921875 C 225.539062 100.90625 226.777344 100.875 228.011719 100.835938 C 235.351562 100.613281 242.667969 100.046875 249.964844 99.136719 C 258.097656 98.125 266.171875 96.691406 274.160156 94.835938 C 274.492188 94.734375 274.746094 94.46875 274.832031 94.125 C 274.917969 93.785156 274.828125 93.421875 274.589844 93.171875 Z M 274.589844 93.171875 "/>
<path style=" stroke:none;fill-rule:nonzero;fill:rgb(80%,80%,80%);fill-opacity:1;" d="M 192.457031 2.25 L 221.484375 414.6875 L 163.425781 419.988281 L 163.425781 7.496094 C 170.34375 1.941406 180.273438 1.070312 192.457031 2.25 Z M 192.457031 2.25 "/>
<path style=" stroke:none;fill-rule:nonzero;fill:rgb(80%,80%,80%);fill-opacity:1;" d="M 335.75 2.25 L 306.71875 414.6875 L 364.777344 419.988281 L 364.777344 7.496094 C 357.859375 1.941406 347.929688 1.070312 335.75 2.25 Z M 335.75 2.25 "/>
<path style=" stroke:none;fill-rule:nonzero;fill:rgb(80%,80%,80%);fill-opacity:1;" d="M 366.144531 7.675781 C 364.339844 3.136719 360.511719 0 356.082031 0 L 171.503906 0 C 165.34375 0 160.339844 6.074219 160.339844 13.550781 L 160.339844 423.480469 C 160.285156 427.273438 161.664062 430.941406 164.1875 433.707031 C 165.503906 435.132812 167.175781 436.164062 169.019531 436.6875 C 169.828125 436.917969 170.664062 437.035156 171.503906 437.03125 L 356.082031 437.03125 C 356.921875 437.035156 357.757812 436.917969 358.566406 436.6875 C 363.53125 435.316406 367.246094 429.921875 367.246094 423.480469 L 367.246094 13.550781 C 367.25 11.539062 366.878906 9.542969 366.144531 7.675781 Z M 363.542969 423.480469 C 363.542969 428.472656 360.195312 432.539062 356.082031 432.539062 L 171.503906 432.539062 C 168.09375 432.539062 165.207031 429.746094 164.324219 425.945312 C 164.136719 425.136719 164.039062 424.3125 164.042969 423.480469 L 164.042969 13.550781 C 164.042969 8.558594 167.390625 4.5 171.503906 4.5 L 356.082031 4.5 C 356.839844 4.5 357.589844 4.640625 358.300781 4.910156 C 361.332031 6.054688 363.542969 9.492188 363.542969 13.550781 Z M 363.542969 423.480469 "/>
<path style=" stroke:none;fill-rule:nonzero;fill:rgb(80%,80%,80%);fill-opacity:1;" d="M 162.191406 124.605469 L 365.394531 124.605469 L 365.394531 128.414062 L 162.191406 128.414062 Z M 162.191406 124.605469 "/>
<path style=" stroke:none;fill-rule:nonzero;fill:rgb(80%,80%,80%);fill-opacity:1;" d="M 162.191406 45.953125 L 365.394531 45.953125 L 365.394531 49.765625 L 162.191406 49.765625 Z M 162.191406 45.953125 "/>
<path style=" stroke:none;fill-rule:nonzero;fill:rgb(80%,80%,80%);fill-opacity:1;" d="M 162.191406 188.105469 L 365.394531 188.105469 L 365.394531 191.917969 L 162.191406 191.917969 Z M 162.191406 188.105469 "/>
<path style=" stroke:none;fill-rule:nonzero;fill:rgb(80%,80%,80%);fill-opacity:1;" d="M 224.425781 1.710938 L 228.132812 1.710938 L 228.132812 242.082031 L 224.425781 242.082031 Z M 224.425781 1.710938 "/>
<path style=" stroke:none;fill-rule:nonzero;fill:rgb(80%,80%,80%);fill-opacity:1;" d="M 299.453125 1.710938 L 303.160156 1.710938 L 303.160156 242.082031 L 299.453125 242.082031 Z M 299.453125 1.710938 "/>
<path style=" stroke:none;fill-rule:nonzero;fill:rgb(80%,80%,80%);fill-opacity:1;" d="M 388.554688 413.21875 L 145.203125 413.21875 C 136 413.230469 128.542969 420.898438 128.53125 430.363281 C 128.527344 432.550781 128.9375 434.714844 129.734375 436.742188 C 132.265625 443.246094 138.390625 447.507812 145.203125 447.511719 L 388.554688 447.511719 C 394.480469 447.511719 399.957031 444.277344 402.945312 439.019531 C 403.363281 438.289062 403.726562 437.527344 404.03125 436.742188 C 404.828125 434.714844 405.238281 432.550781 405.234375 430.363281 C 405.222656 420.898438 397.761719 413.230469 388.554688 413.21875 Z M 388.554688 413.21875 "/>
<path style=" stroke:none;fill-rule:nonzero;fill:rgb(80%,80%,80%);fill-opacity:1;" d="M 163.425781 233.191406 L 365.394531 233.191406 L 365.394531 245.894531 L 163.425781 245.894531 Z M 163.425781 233.191406 "/>
<path style=" stroke:none;fill-rule:nonzero;fill:rgb(80%,80%,80%);fill-opacity:1;" d="M 262.558594 229.382812 L 266.261719 229.382812 C 270.015625 229.382812 273.058594 232.511719 273.058594 236.367188 L 255.761719 236.367188 C 255.761719 232.511719 258.804688 229.382812 262.558594 229.382812 Z M 262.558594 229.382812 "/>
<path style=" stroke:none;fill-rule:nonzero;fill:rgb(100%,72.156863%,72.156863%);fill-opacity:1;" d="M 306.25 229.65625 C 306.25 251.390625 289.113281 269.011719 267.972656 269.011719 C 246.835938 269.011719 229.699219 251.390625 229.699219 229.65625 C 229.699219 207.925781 246.835938 190.304688 267.972656 190.304688 C 289.113281 190.304688 306.25 207.925781 306.25 229.65625 Z M 306.25 229.65625 "/>
<path style=" stroke:none;fill-rule:nonzero;fill:rgb(18.431373%,18.039216%,25.490196%);fill-opacity:1;" d="M 225.277344 191.800781 C 225.566406 187.28125 228.472656 182.65625 237.707031 180.242188 C 237.707031 180.242188 253.554688 159.402344 275.09375 170.332031 C 275.09375 170.332031 285.535156 168.484375 293.277344 179.621094 C 293.277344 179.621094 300.953125 174.96875 304.191406 183.21875 C 304.191406 183.21875 313.195312 200.046875 309.878906 217.210938 C 306.566406 234.378906 304.871094 236.519531 304.871094 236.519531 C 304.871094 236.519531 309.09375 201.011719 284.761719 203.476562 C 260.425781 205.9375 240.835938 197.140625 235.324219 216.402344 C 230.75 232.398438 231.328125 240.703125 231.328125 240.703125 C 231.328125 240.703125 216.023438 224.746094 221.226562 212.183594 C 223.886719 205.757812 224.828125 198.769531 225.277344 191.800781 Z M 225.277344 191.800781 "/>
<path style=" stroke:none;fill-rule:nonzero;fill:rgb(42.352941%,38.823529%,100%);fill-opacity:1;" d="M 163.886719 444.71875 L 375.601562 444.71875 C 374.1875 428.117188 373.261719 364.648438 373.261719 360.46875 C 373.261719 342.046875 358.597656 321.9375 358.597656 321.9375 L 353.347656 318.957031 L 309.515625 304.894531 L 298.171875 289.746094 C 295.765625 286.519531 292.027344 284.644531 288.070312 284.675781 L 252.238281 284.953125 C 249.085938 284.976562 246.054688 286.210938 243.742188 288.414062 L 221.550781 309.578125 L 189.007812 325.554688 L 188.953125 325.5 L 188.613281 325.757812 L 183.78125 329.335938 L 180.675781 331.640625 C 180.675781 331.640625 172.527344 341.695312 166.011719 371.847656 C 165.03125 376.382812 164.34375 435.089844 163.886719 444.71875 Z M 163.886719 444.71875 "/>
<path style=" stroke:none;fill-rule:nonzero;fill:rgb(80%,80%,80%);fill-opacity:1;" d="M 424.605469 436.742188 C 424.09375 437.21875 423.578125 437.691406 423.0625 438.167969 C 421.113281 439.949219 419.132812 441.703125 417.125 443.425781 C 414.09375 446.027344 411 448.546875 407.839844 450.988281 L 122.832031 450.988281 C 117.027344 446.511719 111.4375 441.761719 106.0625 436.742188 Z M 424.605469 436.742188 "/>
<path style=" stroke:none;fill-rule:nonzero;fill:rgb(18.431373%,18.039216%,25.490196%);fill-opacity:1;" d="M 320.132812 440.160156 L 215.363281 440.160156 L 217.578125 429.332031 L 317.914062 429.332031 Z M 320.132812 440.160156 "/>
<path style=" stroke:none;fill-rule:nonzero;fill:rgb(24.705882%,23.921569%,33.72549%);fill-opacity:1;" d="M 414.917969 393.425781 L 387.65625 393.425781 C 386.410156 393.421875 385.226562 393.984375 384.425781 394.964844 C 384.046875 394.890625 383.660156 394.851562 383.273438 394.851562 C 379.699219 394.847656 376.800781 397.824219 376.800781 401.5 C 376.800781 405.171875 379.699219 408.152344 383.273438 408.148438 C 384.25 408.148438 385.210938 407.917969 386.089844 407.476562 L 386.542969 413.21875 L 388.351562 435.925781 C 388.4375 436.210938 388.550781 436.484375 388.695312 436.742188 C 389.4375 438.144531 390.867188 439.019531 392.425781 439.019531 L 410.152344 439.019531 C 411.710938 439.019531 413.140625 438.144531 413.890625 436.742188 C 414.027344 436.480469 414.140625 436.207031 414.226562 435.925781 L 418.996094 399.097656 C 419.390625 397.769531 419.152344 396.324219 418.347656 395.203125 C 417.546875 394.085938 416.273438 393.425781 414.917969 393.425781 Z M 383.273438 406.25 C 380.722656 406.246094 378.65625 404.121094 378.65625 401.5 C 378.65625 398.878906 380.722656 396.753906 383.273438 396.75 C 383.355469 396.75 383.433594 396.773438 383.515625 396.777344 C 383.335938 397.542969 383.355469 398.34375 383.582031 399.097656 L 385.535156 405.617188 C 384.847656 406.027344 384.066406 406.246094 383.273438 406.25 Z M 383.273438 406.25 "/>
<path style=" stroke:none;fill-rule:nonzero;fill:rgb(24.705882%,23.921569%,33.72549%);fill-opacity:1;" d="M 353.34375 272.925781 L 180.765625 272.925781 C 177.679688 272.929688 175.175781 275.5 175.171875 278.675781 L 175.171875 398.40625 C 175.175781 401.582031 177.679688 404.15625 180.765625 404.15625 L 353.34375 404.15625 C 356.429688 404.15625 358.933594 401.582031 358.9375 398.40625 L 358.9375 278.675781 C 358.933594 275.5 356.429688 272.929688 353.34375 272.925781 Z M 353.34375 272.925781 "/>
<path style=" stroke:none;fill-rule:nonzero;fill:rgb(18.431373%,18.039216%,25.490196%);fill-opacity:1;" d="M 286.488281 368.863281 L 246.117188 368.863281 C 244.929688 368.863281 243.964844 369.855469 243.964844 371.078125 L 243.964844 436.648438 L 288.644531 436.648438 L 288.644531 371.078125 C 288.648438 370.492188 288.417969 369.925781 288.015625 369.511719 C 287.609375 369.09375 287.0625 368.863281 286.488281 368.863281 Z M 266.441406 406.117188 C 263.8125 406.105469 261.683594 403.917969 261.671875 401.21875 L 261.671875 393.652344 C 261.675781 390.949219 263.808594 388.757812 266.4375 388.757812 C 269.070312 388.757812 271.203125 390.949219 271.207031 393.652344 L 271.207031 401.21875 C 271.195312 403.917969 269.066406 406.105469 266.441406 406.117188 Z M 266.441406 406.117188 "/>
<path style=" stroke:none;fill-rule:nonzero;fill:rgb(24.705882%,23.921569%,33.72549%);fill-opacity:1;" d="M 243.828125 434.554688 L 243.828125 440.878906 C 243.828125 441.5625 244.367188 442.113281 245.03125 442.117188 L 287.582031 442.117188 C 288.246094 442.113281 288.78125 441.5625 288.785156 440.878906 L 288.785156 434.554688 Z M 243.828125 434.554688 "/>
<path style=" stroke:none;fill-rule:nonzero;fill:rgb(18.431373%,18.039216%,25.490196%);fill-opacity:1;" d="M 352.398438 394.355469 C 352.398438 395.902344 351.179688 397.15625 349.671875 397.15625 C 348.167969 397.15625 346.949219 395.902344 346.949219 394.355469 C 346.949219 392.808594 348.167969 391.554688 349.671875 391.554688 C 351.179688 391.554688 352.398438 392.808594 352.398438 394.355469 Z M 352.398438 394.355469 "/>
<path style=" stroke:none;fill-rule:nonzero;fill:rgb(18.431373%,18.039216%,25.490196%);fill-opacity:1;" d="M 202.550781 390.292969 C 202.023438 390.292969 201.597656 390.730469 201.597656 391.273438 L 201.597656 396.316406 C 201.597656 396.855469 202.027344 397.292969 202.550781 397.292969 C 203.078125 397.292969 203.503906 396.855469 203.503906 396.316406 L 203.503906 391.273438 C 203.503906 390.730469 203.078125 390.292969 202.550781 390.292969 Z M 202.550781 390.292969 "/>
<path style=" stroke:none;fill-rule:nonzero;fill:rgb(18.431373%,18.039216%,25.490196%);fill-opacity:1;" d="M 207.730469 390.292969 C 207.203125 390.292969 206.777344 390.730469 206.777344 391.273438 L 206.777344 396.316406 C 206.777344 396.855469 207.203125 397.296875 207.730469 397.296875 C 208.253906 397.296875 208.683594 396.855469 208.683594 396.316406 L 208.683594 391.273438 C 208.683594 390.730469 208.253906 390.292969 207.730469 390.292969 Z M 207.730469 390.292969 "/>
<path style=" stroke:none;fill-rule:nonzero;fill:rgb(18.431373%,18.039216%,25.490196%);fill-opacity:1;" d="M 212.90625 390.292969 C 212.378906 390.292969 211.953125 390.730469 211.953125 391.273438 L 211.953125 396.316406 C 211.953125 396.855469 212.382812 397.292969 212.90625 397.292969 C 213.433594 397.292969 213.859375 396.855469 213.859375 396.316406 L 213.859375 391.273438 C 213.859375 390.730469 213.433594 390.292969 212.90625 390.292969 Z M 212.90625 390.292969 "/>
<path style=" stroke:none;fill-rule:nonzero;fill:rgb(18.431373%,18.039216%,25.490196%);fill-opacity:1;" d="M 218.085938 390.292969 C 217.558594 390.292969 217.128906 390.730469 217.128906 391.273438 L 217.128906 396.316406 C 217.132812 396.855469 217.558594 397.292969 218.085938 397.292969 C 218.609375 397.292969 219.035156 396.855469 219.039062 396.316406 L 219.039062 391.273438 C 219.039062 390.730469 218.609375 390.292969 218.085938 390.292969 Z M 218.085938 390.292969 "/>
<path style=" stroke:none;fill-rule:nonzero;fill:rgb(100%,72.156863%,72.156863%);fill-opacity:1;" d="M 236.628906 422.492188 C 236.628906 430.675781 230.175781 437.3125 222.214844 437.3125 C 214.253906 437.3125 207.800781 430.675781 207.800781 422.492188 C 207.800781 414.308594 214.253906 407.675781 222.214844 407.675781 C 230.175781 407.675781 236.628906 414.308594 236.628906 422.492188 Z M 236.628906 422.492188 "/>
<path style=" stroke:none;fill-rule:nonzero;fill:rgb(100%,72.156863%,72.156863%);fill-opacity:1;" d="M 337.316406 425.34375 C 337.316406 433.527344 330.863281 440.160156 322.90625 440.160156 C 314.945312 440.160156 308.492188 433.527344 308.492188 425.34375 C 308.492188 417.160156 314.945312 410.523438 322.90625 410.523438 C 330.863281 410.523438 337.316406 417.160156 337.316406 425.34375 Z M 337.316406 425.34375 "/>
<path style=" stroke:none;fill-rule:nonzero;fill:rgb(24.705882%,23.921569%,33.72549%);fill-opacity:1;" d="M 471.671875 246.480469 C 470.246094 244.058594 468.558594 241.472656 465.917969 240.683594 C 462.855469 239.765625 459.710938 241.585938 457.042969 243.378906 C 449.070312 248.75 441.386719 254.566406 434.035156 260.808594 L 434.042969 260.902344 C 439.769531 260.496094 444.515625 276.144531 450.242188 275.738281 C 454.375 275.445312 459.625 259.058594 463.28125 257.046875 C 464.664062 256.285156 466.015625 255.265625 467.589844 255.195312 C 469.539062 255.105469 471.242188 256.507812 472.582031 257.972656 C 480.492188 266.636719 482.78125 279.882812 491.660156 287.492188 C 486.0625 273.300781 479.378906 259.585938 471.671875 246.480469 Z M 471.671875 246.480469 "/>
<path style=" stroke:none;fill-rule:nonzero;fill:rgb(24.705882%,23.921569%,33.72549%);fill-opacity:1;" d="M 486.902344 267.519531 C 491.074219 275.273438 495.503906 282.871094 500.183594 290.3125 L 500.183594 290.320312 C 500.15625 290.582031 500.117188 290.84375 500.078125 291.105469 C 499.511719 290.214844 498.953125 289.324219 498.398438 288.425781 C 494.195312 281.648438 490.203125 274.746094 486.417969 267.710938 C 484.621094 264.363281 482.871094 260.992188 481.164062 257.59375 C 479.84375 254.960938 478.554688 252.3125 477.289062 249.648438 C 476.929688 248.882812 476.578125 248.121094 476.230469 247.351562 C 475.410156 245.550781 474.601562 243.738281 473.734375 241.960938 C 472.75 239.929688 471.546875 237.8125 469.734375 236.449219 C 468.910156 235.800781 467.921875 235.410156 466.890625 235.320312 C 465.433594 235.328125 464.007812 235.75 462.769531 236.535156 C 453.394531 241.601562 444.640625 247.808594 436.699219 255.015625 C 428.75 262.199219 421.644531 270.308594 415.523438 279.1875 C 415.335938 279.460938 414.890625 279.199219 415.082031 278.921875 C 415.828125 277.835938 416.582031 276.769531 417.359375 275.710938 C 426.976562 262.5625 438.769531 251.253906 452.199219 242.300781 C 454.457031 240.796875 456.757812 239.363281 459.101562 238 C 460.28125 237.308594 461.46875 236.628906 462.675781 235.992188 C 463.832031 235.296875 465.128906 234.882812 466.46875 234.785156 C 471.070312 234.710938 473.453125 240.066406 475.089844 243.667969 C 475.597656 244.804688 476.117188 245.9375 476.644531 247.066406 C 478.636719 251.339844 480.703125 255.582031 482.847656 259.789062 C 484.167969 262.378906 485.519531 264.957031 486.902344 267.519531 Z M 486.902344 267.519531 "/>
<path style=" stroke:none;fill-rule:nonzero;fill:rgb(24.705882%,23.921569%,33.72549%);fill-opacity:1;" d="M 436.246094 252.371094 C 435.980469 252.066406 435.714844 251.757812 435.445312 251.453125 C 433.324219 249.039062 431.046875 246.65625 428.136719 245.273438 C 426.746094 244.59375 425.230469 244.230469 423.691406 244.214844 C 422.105469 244.257812 420.539062 244.609375 419.078125 245.25 C 418.382812 245.535156 417.703125 245.859375 417.035156 246.203125 C 416.269531 246.597656 415.519531 247.019531 414.773438 247.445312 C 413.371094 248.242188 411.984375 249.078125 410.621094 249.945312 C 407.902344 251.671875 405.265625 253.53125 402.71875 255.523438 C 401.398438 256.554688 400.101562 257.621094 398.835938 258.722656 C 397.660156 259.746094 396.503906 260.792969 395.375 261.871094 C 395.132812 262.101562 394.769531 261.730469 395.011719 261.5 C 395.3125 261.214844 395.613281 260.933594 395.914062 260.652344 C 396.765625 259.859375 397.628906 259.085938 398.507812 258.324219 C 400.109375 256.933594 401.753906 255.597656 403.4375 254.316406 C 406.058594 252.320312 408.769531 250.460938 411.570312 248.734375 C 412.96875 247.875 414.386719 247.050781 415.824219 246.261719 C 416.257812 246.023438 416.699219 245.789062 417.144531 245.570312 C 418.152344 245.046875 419.199219 244.609375 420.273438 244.257812 C 421.800781 243.75 423.414062 243.585938 425.007812 243.78125 C 426.542969 244.011719 428.023438 244.535156 429.371094 245.332031 C 432.230469 246.976562 434.449219 249.519531 436.609375 252 C 436.828125 252.25 436.46875 252.621094 436.246094 252.371094 Z M 436.246094 252.371094 "/>
<path style=" stroke:none;fill-rule:nonzero;fill:rgb(24.705882%,23.921569%,33.72549%);fill-opacity:1;" d="M 415.320312 263.976562 C 414.589844 264.011719 413.871094 263.800781 413.273438 263.375 C 411.691406 262.140625 411.734375 259.179688 413.402344 254.320312 C 414.320312 251.660156 416.265625 249.507812 418.78125 248.375 C 421.140625 247.292969 423.832031 247.277344 426.199219 248.332031 C 426.40625 248.421875 426.605469 248.519531 426.804688 248.625 C 428.164062 249.40625 429.433594 250.332031 430.597656 251.390625 C 431.589844 252.273438 432.644531 253.078125 433.757812 253.789062 L 434.128906 254.015625 L 433.777344 254.269531 C 424.796875 260.769531 418.710938 263.976562 415.320312 263.976562 Z M 415.320312 263.976562 "/>
<path style=" stroke:none;fill-rule:nonzero;fill:rgb(24.705882%,23.921569%,33.72549%);fill-opacity:1;" d="M 449.847656 225.292969 C 443.757812 225.292969 438.519531 220.867188 437.339844 214.726562 C 430.445312 216.160156 425.984375 223.0625 427.371094 230.152344 C 428.753906 237.242188 435.460938 241.839844 442.359375 240.429688 C 449.257812 239.019531 453.742188 232.128906 452.378906 225.035156 C 451.546875 225.207031 450.699219 225.292969 449.847656 225.292969 Z M 449.847656 225.292969 "/>
<use xlink:href="#surface5" mask="url(#mask0)"/>
<use xlink:href="#surface8" mask="url(#mask1)"/>
<use xlink:href="#surface11" mask="url(#mask2)"/>
<path style=" stroke:none;fill-rule:nonzero;fill:rgb(24.705882%,23.921569%,33.72549%);fill-opacity:1;" d="M 119.109375 221.410156 L 167.980469 205.625 L 168.3125 206.710938 L 119.441406 222.496094 Z M 119.109375 221.410156 "/>
<path style=" stroke:none;fill-rule:nonzero;fill:rgb(24.705882%,23.921569%,33.72549%);fill-opacity:1;" d="M 170.507812 205.984375 C 170.507812 207.246094 169.515625 208.265625 168.289062 208.265625 C 167.066406 208.265625 166.074219 207.246094 166.074219 205.984375 C 166.074219 204.726562 167.066406 203.707031 168.289062 203.707031 C 169.515625 203.707031 170.507812 204.726562 170.507812 205.984375 Z M 170.507812 205.984375 "/>
<path style=" stroke:none;fill-rule:nonzero;fill:rgb(24.705882%,23.921569%,33.72549%);fill-opacity:1;" d="M 485.558594 308.566406 C 488.808594 310.921875 491.929688 313.320312 495.5 315.132812 C 495.433594 315.414062 495.359375 315.699219 495.292969 315.976562 C 494.855469 315.765625 494.429688 315.542969 494.003906 315.316406 C 490.382812 313.367188 487.265625 310.71875 483.867188 308.414062 C 482.183594 307.21875 480.34375 306.269531 478.402344 305.597656 C 476.378906 304.972656 474.265625 304.71875 472.15625 304.847656 C 463.359375 305.292969 455.820312 310.6875 447.644531 313.40625 C 443.640625 314.742188 439.382812 315.453125 435.207031 314.617188 C 431.035156 313.777344 427.324219 311.496094 423.640625 309.433594 C 420.003906 307.394531 416.039062 305.34375 411.792969 305.34375 C 408.335938 305.347656 404.699219 306.773438 402.847656 309.917969 C 402.726562 310.113281 402.476562 310.175781 402.285156 310.058594 C 402.089844 309.941406 402.023438 309.6875 402.132812 309.484375 C 402.546875 308.769531 403.054688 308.113281 403.644531 307.542969 C 406.0625 305.1875 409.613281 304.257812 412.878906 304.53125 C 417.105469 304.886719 420.957031 306.9375 424.609375 309 C 428.484375 311.191406 432.453125 313.542969 436.933594 314.023438 C 441.355469 314.5 445.734375 313.308594 449.839844 311.707031 C 457.78125 308.601562 465.621094 303.425781 474.457031 304.003906 C 478.625 304.277344 482.195312 306.132812 485.558594 308.566406 Z M 485.558594 308.566406 "/>
<path style=" stroke:none;fill-rule:nonzero;fill:rgb(42.352941%,38.823529%,100%);fill-opacity:1;" d="M 137.855469 143.738281 L 137.855469 144.894531 C 137.480469 144.816406 137.101562 144.78125 136.722656 144.78125 L 130.925781 144.78125 L 130.925781 157.582031 C 130.921875 161.527344 127.8125 164.726562 123.972656 164.726562 L 115.402344 164.726562 L 115.402344 166.699219 C 115.402344 167.488281 115.554688 168.273438 115.851562 169.003906 L 114.667969 169.003906 C 114.417969 168.261719 114.292969 167.484375 114.292969 166.699219 L 114.292969 164.726562 L 109.582031 164.726562 L 109.582031 163.585938 L 114.292969 163.585938 L 114.292969 150.785156 C 114.296875 146.839844 117.40625 143.640625 121.246094 143.640625 L 129.816406 143.640625 L 129.816406 141.644531 L 130.925781 141.644531 L 130.925781 143.640625 L 136.722656 143.640625 C 137.101562 143.640625 137.480469 143.671875 137.855469 143.738281 Z M 137.855469 143.738281 "/>
<path style=" stroke:none;fill-rule:nonzero;fill:rgb(24.705882%,23.921569%,33.72549%);fill-opacity:1;" d="M 123.972656 134.519531 L 108.496094 134.519531 C 104.65625 134.523438 101.546875 137.722656 101.546875 141.667969 L 101.546875 157.582031 C 101.546875 161.527344 104.65625 164.726562 108.496094 164.726562 L 123.972656 164.726562 C 127.8125 164.726562 130.921875 161.527344 130.925781 157.582031 L 130.925781 141.644531 C 130.910156 137.707031 127.804688 134.523438 123.972656 134.519531 Z M 129.816406 157.582031 C 129.8125 160.894531 127.199219 163.582031 123.972656 163.585938 L 108.496094 163.585938 C 105.269531 163.582031 102.65625 160.894531 102.652344 157.582031 L 102.652344 141.667969 C 102.65625 138.351562 105.269531 135.664062 108.496094 135.660156 L 123.972656 135.660156 C 127.191406 135.664062 129.800781 138.339844 129.816406 141.644531 Z M 129.816406 157.582031 "/>
<path style=" stroke:none;fill-rule:nonzero;fill:rgb(24.705882%,23.921569%,33.72549%);fill-opacity:1;" d="M 114.292969 163.585938 L 114.292969 164.726562 L 115.402344 164.726562 L 115.402344 163.585938 Z M 114.292969 163.585938 L 114.292969 164.726562 L 115.402344 164.726562 L 115.402344 163.585938 Z M 137.855469 143.738281 C 137.480469 143.671875 137.101562 143.640625 136.722656 143.640625 L 121.246094 143.640625 C 117.40625 143.640625 114.296875 146.839844 114.292969 150.785156 L 114.292969 166.699219 C 114.292969 167.484375 114.417969 168.261719 114.667969 169.003906 C 115.625 171.898438 118.269531 173.84375 121.246094 173.847656 L 136.722656 173.847656 C 140.5625 173.84375 143.671875 170.644531 143.675781 166.699219 L 143.675781 150.785156 C 143.675781 147.289062 141.210938 144.304688 137.855469 143.738281 Z M 142.566406 166.699219 C 142.5625 170.015625 139.949219 172.703125 136.722656 172.707031 L 121.246094 172.707031 C 118.019531 172.703125 115.40625 170.015625 115.402344 166.699219 L 115.402344 150.785156 C 115.40625 147.472656 118.019531 144.785156 121.246094 144.78125 L 136.722656 144.78125 C 139.949219 144.78125 142.566406 147.46875 142.566406 150.785156 Z M 114.292969 163.585938 L 114.292969 164.726562 L 115.402344 164.726562 L 115.402344 163.585938 Z M 114.292969 163.585938 "/>
<path style=" stroke:none;fill-rule:nonzero;fill:rgb(42.352941%,38.823529%,100%);fill-opacity:1;" d="M 103.347656 312.164062 L 37.601562 312.164062 C 36.648438 312.164062 35.875 312.957031 35.871094 313.9375 L 35.871094 317.945312 C 38.042969 326.484375 40.667969 334.898438 43.738281 343.140625 L 103.347656 343.140625 C 103.804688 343.140625 104.242188 342.953125 104.566406 342.621094 C 104.890625 342.289062 105.070312 341.839844 105.070312 341.367188 L 105.070312 313.9375 C 105.070312 312.957031 104.296875 312.164062 103.347656 312.164062 Z M 103.347656 312.164062 "/>
<path style=" stroke:none;fill-rule:nonzero;fill:rgb(89.411765%,89.411765%,89.411765%);fill-opacity:1;" d="M 97.082031 352.039062 L 47.246094 352.039062 C 47.839844 353.46875 48.445312 354.886719 49.070312 356.300781 L 97.082031 356.300781 C 99.789062 356.339844 99.761719 351.996094 97.082031 352.039062 Z M 97.082031 352.039062 "/>
<path style=" stroke:none;fill-rule:nonzero;fill:rgb(89.411765%,89.411765%,89.411765%);fill-opacity:1;" d="M 97.082031 361.804688 L 51.570312 361.804688 C 52.234375 363.238281 52.917969 364.65625 53.621094 366.070312 L 97.082031 366.070312 C 99.789062 366.109375 99.761719 361.773438 97.082031 361.804688 Z M 97.082031 361.804688 "/>
<path style=" stroke:none;fill-rule:nonzero;fill:rgb(89.411765%,89.411765%,89.411765%);fill-opacity:1;" d="M 97.082031 371.582031 L 56.421875 371.582031 C 57.164062 373.011719 57.929688 374.429688 58.707031 375.84375 L 97.082031 375.84375 C 99.789062 375.882812 99.761719 371.539062 97.082031 371.582031 Z M 97.082031 371.582031 "/>
<path style=" stroke:none;fill-rule:nonzero;fill:rgb(24.705882%,23.921569%,33.72549%);fill-opacity:1;" d="M 437.921875 108.859375 L 437.605469 108.859375 C 438.585938 108.859375 439.558594 109.097656 440.4375 109.546875 L 439 109.546875 C 435.773438 109.550781 433.160156 112.238281 433.15625 115.554688 L 433.15625 131.46875 C 433.160156 134.785156 435.773438 137.472656 439 137.476562 L 439.914062 137.476562 C 439.179688 137.773438 438.394531 137.925781 437.605469 137.925781 L 437.921875 137.925781 C 441.453125 137.921875 444.3125 134.980469 444.316406 131.347656 L 444.316406 115.4375 C 444.3125 111.804688 441.453125 108.863281 437.921875 108.859375 Z M 437.921875 108.859375 "/>
<use xlink:href="#surface14" mask="url(#mask3)"/>
<path style=" stroke:none;fill-rule:nonzero;fill:rgb(42.352941%,38.823529%,100%);fill-opacity:1;" d="M 396.898438 108.859375 L 396.582031 108.859375 C 397.566406 108.859375 398.535156 109.097656 399.414062 109.546875 L 397.976562 109.546875 C 394.753906 109.550781 392.140625 112.238281 392.136719 115.554688 L 392.136719 131.46875 C 392.140625 134.785156 394.753906 137.472656 397.976562 137.476562 L 398.894531 137.476562 C 398.15625 137.773438 397.375 137.925781 396.582031 137.925781 L 396.898438 137.925781 C 400.429688 137.921875 403.292969 134.980469 403.296875 131.347656 L 403.296875 115.4375 C 403.292969 111.804688 400.429688 108.863281 396.898438 108.859375 Z M 396.898438 108.859375 "/>
<use xlink:href="#surface17" mask="url(#mask4)"/>
<path style=" stroke:none;fill-rule:nonzero;fill:rgb(42.352941%,38.823529%,100%);fill-opacity:1;" d="M 398.039062 137.523438 C 394.816406 137.519531 392.199219 134.832031 392.199219 131.519531 L 392.199219 115.605469 C 392.199219 112.289062 394.816406 109.601562 398.039062 109.597656 L 399.476562 109.597656 C 398.597656 109.144531 397.628906 108.910156 396.644531 108.910156 L 381.167969 108.910156 C 377.636719 108.914062 374.773438 111.855469 374.769531 115.484375 L 374.769531 131.398438 C 374.773438 135.03125 377.636719 137.972656 381.167969 137.976562 L 396.644531 137.976562 C 397.4375 137.972656 398.21875 137.820312 398.957031 137.523438 Z M 398.039062 137.523438 "/>
<path style=" stroke:none;fill-rule:nonzero;fill:rgb(24.705882%,23.921569%,33.72549%);fill-opacity:1;" d="M 439.0625 137.523438 C 435.835938 137.519531 433.222656 134.832031 433.21875 131.519531 L 433.21875 115.605469 C 433.222656 112.289062 435.835938 109.601562 439.0625 109.597656 L 440.5 109.597656 C 439.621094 109.144531 438.648438 108.910156 437.667969 108.910156 L 422.1875 108.910156 C 418.65625 108.914062 415.796875 111.855469 415.792969 115.484375 L 415.792969 131.398438 C 415.796875 135.03125 418.65625 137.972656 422.1875 137.976562 L 437.667969 137.976562 C 438.457031 137.972656 439.242188 137.820312 439.976562 137.523438 Z M 439.0625 137.523438 "/>
<path style=" stroke:none;fill-rule:nonzero;fill:rgb(100%,39.607843%,51.764706%);fill-opacity:1;" d="M 457.339844 112.867188 C 463.019531 120.902344 468.214844 129.289062 472.898438 137.976562 L 463.207031 137.976562 C 459.679688 137.96875 456.816406 135.027344 456.8125 131.398438 L 456.8125 115.484375 C 456.8125 114.585938 456.988281 113.695312 457.339844 112.867188 Z M 457.339844 112.867188 "/>
<path style=" stroke:none;fill-rule:nonzero;fill:rgb(80%,80%,80%);fill-opacity:1;" d="M 437.910156 146.324219 L 432.488281 137.976562 L 428.523438 131.871094 C 428.050781 131.144531 427.214844 130.757812 426.371094 130.882812 C 425.53125 131.011719 424.832031 131.621094 424.582031 132.457031 L 422.914062 137.976562 L 419.554688 149.058594 C 419.28125 149.964844 419.585938 150.945312 420.3125 151.527344 C 421.039062 152.105469 422.042969 152.160156 422.824219 151.664062 L 424.015625 150.90625 C 424.503906 150.597656 425.113281 150.570312 425.625 150.832031 C 426.136719 151.097656 426.480469 151.613281 426.535156 152.199219 L 427.625 164.453125 C 427.730469 165.621094 428.679688 166.511719 429.820312 166.515625 C 429.886719 166.515625 429.953125 166.511719 430.027344 166.503906 L 431.699219 166.351562 C 432.28125 166.296875 432.820312 166.007812 433.195312 165.542969 C 433.570312 165.082031 433.75 164.484375 433.695312 163.882812 L 432.570312 151.230469 C 432.515625 150.625 432.78125 150.039062 433.261719 149.6875 C 433.746094 149.335938 434.375 149.277344 434.910156 149.53125 L 435.152344 149.648438 C 436.050781 150.070312 437.113281 149.832031 437.753906 149.058594 C 438.394531 148.285156 438.457031 147.167969 437.910156 146.324219 Z M 437.910156 146.324219 "/>
</g>
</svg>
